<svg width="176" height="33" viewBox="0 0 176 33" fill="none" xmlns="http://www.w3.org/2000/svg">
<path d="M81.2739 15.1192V31.8224H85.9929V16.2628C85.9929 14.9487 87.0502 13.8832 88.3542 13.8832H93.2318V9.18799H87.163C83.9101 9.18799 81.2739 11.841 81.2739 15.1192Z" fill="#114455"/>
<path d="M20.1448 8.69434C14.7456 8.69434 10.5729 12.665 10.5729 17.6195V24.9074C10.5552 25.2874 10.3825 25.671 10.1746 26.0084C9.63892 26.8857 8.74727 27.3829 7.72876 27.3829H7.68294C6.67499 27.3829 5.74811 26.8395 5.24766 25.9587L5.15603 25.7953C4.95514 25.4437 4.84941 25.0459 4.84941 24.641V23.881H4.85294V9.19511H0.00352428V21.647H0V24.3463C0 25.6852 0.352428 27.0029 1.01499 28.1536L1.09253 28.2921C2.43528 30.6326 4.93047 32.0568 7.61598 32.0959C7.65475 32.0959 7.69351 32.0959 7.73228 32.0959C10.372 32.0959 12.7685 30.7498 14.157 28.4839C14.6046 27.7522 14.943 26.9496 15.1333 26.1185C15.2566 25.5787 15.2919 25.0211 15.2919 24.467V18.2553C15.2919 16.3303 16.2152 13.0451 20.1448 13.0451C22.7528 13.0451 24.4585 14.9913 24.4585 18.2553V31.7975H29.2692V17.6195C29.2692 12.317 25.0894 8.69434 20.1448 8.69434Z" fill="#114455"/>
<path d="M42.3797 26.8111L36.413 9.19873H31.3804L38.8166 29.5743C39.3629 31.0695 40.7761 32.064 42.3585 32.064C43.9374 32.064 45.3506 31.0731 45.8969 29.5814L53.379 9.19873H48.3005L42.3797 26.8111Z" fill="#114455"/>
<path d="M66.0239 8.69434C59.3701 8.69434 54.9683 13.766 54.9683 20.4715C54.9683 27.1307 59.3736 32.2486 66.0239 32.2486C72.6743 32.2486 77.0796 27.1307 77.0796 20.4715C77.0796 13.7696 72.6743 8.69434 66.0239 8.69434ZM66.0239 27.8091C62.4292 27.8091 59.6873 24.6837 59.6873 20.4715C59.6873 16.2131 62.4292 13.1338 66.0239 13.1338C69.6645 13.1338 72.3606 16.2131 72.3606 20.4715C72.3606 24.6837 69.6645 27.8091 66.0239 27.8091Z" fill="#114455"/>
<path d="M2.41099 4.85149H2.44976C3.77841 4.85149 4.85685 3.7647 4.85685 2.42575C4.85685 1.08679 3.77841 0 2.44976 0H2.41099C1.08234 0 0.00390625 1.08679 0.00390625 2.42575C0.00390625 3.7647 1.08234 4.85149 2.41099 4.85149Z" fill="#114455"/>
<path d="M99.5257 4.85149H99.5645C100.893 4.85149 101.972 3.7647 101.972 2.42575C101.972 1.08679 100.893 0 99.5645 0H99.5257C98.1971 0 97.1187 1.08679 97.1187 2.42575C97.1187 3.7647 98.1971 4.85149 99.5257 4.85149Z" fill="#114455"/>
<path d="M173.063 27.0278H173.024C171.696 27.0278 170.617 28.1146 170.617 29.4536C170.617 30.7925 171.696 31.8793 173.024 31.8793H173.063C174.392 31.8793 175.47 30.7925 175.47 29.4536C175.47 28.1146 174.392 27.0278 173.063 27.0278Z" fill="#114455"/>
<path d="M157.416 8.69434C154.554 8.69434 152.048 9.81664 150.314 11.5995C148.626 9.77047 146.173 8.69434 143.484 8.69434C138.085 8.69434 133.912 12.665 133.912 17.616V31.794H138.631V18.2553C138.631 16.3303 139.554 13.0451 143.484 13.0451C146.092 13.0451 147.798 14.9913 147.798 18.2553V31.7975H147.844H152.563H152.608V17.6195C152.608 17.5911 152.605 17.5662 152.605 17.5378C152.82 15.6129 153.941 13.0451 157.416 13.0451C160.024 13.0451 161.729 14.9913 161.729 18.2553V31.7975H166.54V17.6195C166.54 12.317 162.36 8.69434 157.416 8.69434Z" fill="#114455"/>
<path d="M119.752 8.64844C113.295 8.64844 109.168 13.6526 109.147 20.5108H109.144V23.7285C109.144 24.5561 108.851 25.3623 108.323 25.998C107.656 26.7971 106.68 27.2553 105.644 27.2588H105.641C104.604 27.2588 103.628 26.8007 102.959 25.998C102.426 25.3623 102.137 24.5561 102.137 23.725V17.1119H102.134V9.18118H97.355V23.8315H97.362C97.3867 25.7565 98.0739 27.6247 99.311 29.1021C100.89 30.9916 103.198 32.0713 105.644 32.0713H105.651C108.104 32.0677 110.412 30.9809 111.988 29.0915C112.023 29.0489 112.055 28.9991 112.09 28.953C113.99 31.0164 116.721 32.1991 120.023 32.1991C123.889 32.1991 127.304 30.4304 128.876 27.6708L125.281 25.4511C124.337 26.854 122.673 28.0331 120.203 28.0331C116.608 28.0331 114.272 25.8133 113.775 21.9634H129.507C130.36 14.4908 126.899 8.64844 119.752 8.64844ZM113.817 18.4331C114.402 14.9916 116.513 12.7718 119.794 12.7718C123.481 12.7718 125.232 15.67 125.232 18.4331H113.817Z" fill="#114455"/>
</svg>
